<?xml version="1.0" encoding="UTF-8"?>
<!DOCTYPE svg PUBLIC "-//W3C//DTD SVG 1.1//EN" "http://www.w3.org/Graphics/SVG/1.1/DTD/svg11.dtd">
<svg xmlns="http://www.w3.org/2000/svg" version="1.1" width="1000px" height="942px" style="shape-rendering:geometricPrecision; text-rendering:geometricPrecision; image-rendering:optimizeQuality; fill-rule:evenodd; clip-rule:evenodd" xmlns:xlink="http://www.w3.org/1999/xlink">
<g><path style="opacity:1" fill="#fefefe" d="M 269.5,2.5 C 304.579,2.40479 339.579,2.57146 374.5,3C 377.268,4.76205 378.768,7.26205 379,10.5C 380,11.5 381,12.5 382,13.5C 409.174,63.1887 436.841,112.522 465,161.5C 482.841,194.522 501.174,227.189 520,259.5C 523.497,267.038 527.163,274.372 531,281.5C 535.027,286.217 538.027,291.551 540,297.5C 544.027,302.217 547.027,307.551 549,313.5C 554.825,321.04 559.491,329.373 563,338.5C 567.027,343.217 570.027,348.551 572,354.5C 574.968,356.768 576.634,359.768 577,363.5C 578,364.5 579,365.5 580,366.5C 583.472,375.438 587.972,383.772 593.5,391.5C 684.167,392.283 774.834,393.116 865.5,394C 898.621,395.198 930.288,402.531 960.5,416C 977.285,424.781 989.118,437.948 996,455.5C 996.667,464.833 996.667,474.167 996,483.5C 990.611,498.563 981.111,510.397 967.5,519C 933.322,536.438 896.989,545.104 858.5,545C 770.833,545.333 683.167,545.667 595.5,546C 523.127,674.581 450.627,803.081 378,931.5C 376.833,932.667 375.667,933.833 374.5,935C 338.848,936.532 303.181,936.865 267.5,936C 264.613,934.291 263.279,931.791 263.5,928.5C 302.231,801.149 341.564,673.649 381.5,546C 328.167,545.333 274.833,545.333 221.5,546C 185.13,578.705 148.463,611.039 111.5,643C 79.5053,642.879 47.5053,642.212 15.5,641C 8.34725,642.461 4.01392,639.794 2.5,633C 3.56321,628.701 5.06321,624.534 7,620.5C 30.5027,570.162 54.0027,519.828 77.5,469.5C 52.9425,416.718 28.1091,364.051 3,311.5C 2.33333,307.167 2.33333,302.833 3,298.5C 4.16667,297.333 5.33333,296.167 6.5,295C 41.8805,294.027 77.2138,294.36 112.5,296C 148.465,327.63 184.132,359.63 219.5,392C 233.787,393.245 248.121,393.911 262.5,394C 302.5,394.667 342.5,394.667 382.5,394C 342.535,268.771 303.369,143.271 265,17.5C 263.597,11.5486 265.097,6.54861 269.5,2.5 Z"/></g>
<g><path style="opacity:1" fill="#010201" d="M 282.5,17.5 C 307.169,17.3334 331.836,17.5 356.5,18C 361.83,17.339 365.997,19.1723 369,23.5C 370.946,30.7181 373.946,37.3848 378,43.5C 383.08,47.6599 386.08,52.9932 387,59.5C 388.667,61.1667 390.333,62.8333 392,64.5C 393.946,71.7181 396.946,78.3848 401,84.5C 406.08,88.6599 409.08,93.9932 410,100.5C 411.667,102.167 413.333,103.833 415,105.5C 416.946,112.718 419.946,119.385 424,125.5C 429.08,129.66 432.08,134.993 433,141.5C 434.667,143.167 436.333,144.833 438,146.5C 439.946,153.718 442.946,160.385 447,166.5C 452.08,170.66 455.08,175.993 456,182.5C 457.667,184.167 459.333,185.833 461,187.5C 462.946,194.718 465.946,201.385 470,207.5C 475.08,211.66 478.08,216.993 479,223.5C 480.667,225.167 482.333,226.833 484,228.5C 485.946,235.718 488.946,242.385 493,248.5C 498.08,252.66 501.08,257.993 502,264.5C 503.667,266.167 505.333,267.833 507,269.5C 508.946,276.718 511.946,283.385 516,289.5C 521.08,293.66 524.08,298.993 525,305.5C 530.08,309.66 533.08,314.993 534,321.5C 536.69,323.895 538.357,326.895 539,330.5C 544.08,334.66 547.08,339.993 548,346.5C 553.08,350.66 556.08,355.993 557,362.5C 559.69,364.895 561.357,367.895 562,371.5C 567.08,375.66 570.08,380.993 571,387.5C 576.08,391.66 579.08,396.993 580,403.5C 582.145,406.738 585.145,408.405 589,408.5C 679.158,407.278 769.324,407.444 859.5,409C 891.846,410.17 922.846,417.17 952.5,430C 954.695,434.6 958.362,436.933 963.5,437C 967.49,438.99 969.99,442.157 971,446.5C 980.504,454.682 983.837,465.015 981,477.5C 978.218,486.895 973.051,494.728 965.5,501C 945.697,512.936 924.364,520.936 901.5,525C 885.285,527.839 868.952,529.505 852.5,530C 763.419,530.005 674.419,530.672 585.5,532C 511.914,661.171 438.58,790.504 365.5,920C 337.516,921.497 309.516,921.831 281.5,921C 321.294,795.584 360.46,669.418 399,542.5C 400.098,538.495 399.265,534.995 396.5,532C 336.249,530.341 275.916,530.008 215.5,531C 178.87,562.628 142.537,594.628 106.5,627C 78.4693,627.93 50.4693,627.43 22.5,625.5C 47.0686,573.7 71.0686,521.7 94.5,469.5C 94.3333,468.167 94.1667,466.833 94,465.5C 69.5,413.833 45,362.167 20.5,310.5C 34.1667,310.167 47.8333,309.833 61.5,309.5C 76.2317,309.358 90.8983,309.858 105.5,311C 141.5,343 177.5,375 213.5,407C 226.453,408.234 239.453,408.901 252.5,409C 300.5,409.667 348.5,409.667 396.5,409C 398.667,408.167 400.167,406.667 401,404.5C 401.667,401.5 401.667,398.5 401,395.5C 398.229,391.196 396.229,386.529 395,381.5C 356.584,260.421 319.084,139.088 282.5,17.5 Z"/></g>
</svg>
