<!DOCTYPE svg PUBLIC "-//W3C//DTD SVG 1.1//EN" "http://www.w3.org/Graphics/SVG/1.1/DTD/svg11.dtd">
<!-- Uploaded to: SVG Repo, www.svgrepo.com, Transformed by: SVG Repo Mixer Tools -->
<svg fill="#ed333b" width="800px" height="800px" viewBox="-3.2 -3.2 38.40 38.40" version="1.1" xmlns="http://www.w3.org/2000/svg">
<g id="SVGRepo_bgCarrier" stroke-width="0">
<rect x="-3.2" y="-3.2" width="38.40" height="38.40" rx="0" fill="#ffffff" strokewidth="0"/>
</g>
<g id="SVGRepo_tracerCarrier" stroke-linecap="round" stroke-linejoin="round"/>
<g id="SVGRepo_iconCarrier"> <title>health</title> <path d="M29.125 10.375h-7.5v-7.5c0-1.036-0.839-1.875-1.875-1.875h-7.5c-1.036 0-1.875 0.84-1.875 1.875v7.5h-7.5c-1.036 0-1.875 0.84-1.875 1.875v7.5c0 1.036 0.84 1.875 1.875 1.875h7.5v7.5c0 1.036 0.84 1.875 1.875 1.875h7.5c1.036 0 1.875-0.84 1.875-1.875v-7.5h7.5c1.035 0 1.875-0.839 1.875-1.875v-7.5c0-1.036-0.84-1.875-1.875-1.875z"/> </g>
</svg>